<mxfile host="app.diagrams.net" modified="2020-10-30T21:07:17.132Z" agent="5.0 (Macintosh; Intel Mac OS X 10_15_6) AppleWebKit/605.1.15 (KHTML, like Gecko) Version/13.1.2 Safari/605.1.15" etag="EW03778ppCaRsa_a6Pbx" version="13.8.7" type="github">
  <diagram id="C5RBs43oDa-KdzZeNtuy" name="Page-1">
    <mxGraphModel dx="830" dy="1763" grid="1" gridSize="10" guides="1" tooltips="1" connect="1" arrows="1" fold="1" page="1" pageScale="1" pageWidth="827" pageHeight="1169" math="0" shadow="0">
      <root>
        <mxCell id="WIyWlLk6GJQsqaUBKTNV-0" />
        <mxCell id="WIyWlLk6GJQsqaUBKTNV-1" parent="WIyWlLk6GJQsqaUBKTNV-0" />
        <mxCell id="WIyWlLk6GJQsqaUBKTNV-12" value="unique course ID&lt;br&gt;&amp;nbsp;number&lt;br&gt;3/4 credit course&lt;br&gt;students bill per credit" style="rounded=1;whiteSpace=wrap;html=1;fontSize=12;glass=0;strokeWidth=1;shadow=0;" parent="WIyWlLk6GJQsqaUBKTNV-1" vertex="1">
          <mxGeometry x="320" y="250" width="140" height="60" as="geometry" />
        </mxCell>
        <mxCell id="oN4qOOFTBp7DMDAxU70g-0" value="Course management system" style="rounded=0;whiteSpace=wrap;html=1;" vertex="1" parent="WIyWlLk6GJQsqaUBKTNV-1">
          <mxGeometry x="230" y="-90" width="265" height="40" as="geometry" />
        </mxCell>
        <mxCell id="oN4qOOFTBp7DMDAxU70g-1" value="Course name" style="rounded=0;whiteSpace=wrap;html=1;" vertex="1" parent="WIyWlLk6GJQsqaUBKTNV-1">
          <mxGeometry x="40" y="10" width="170" height="60" as="geometry" />
        </mxCell>
        <mxCell id="oN4qOOFTBp7DMDAxU70g-7" value="" style="endArrow=none;html=1;exitX=1;exitY=0.5;exitDx=0;exitDy=0;entryX=0;entryY=0.5;entryDx=0;entryDy=0;" edge="1" parent="WIyWlLk6GJQsqaUBKTNV-1">
          <mxGeometry width="50" height="50" relative="1" as="geometry">
            <mxPoint x="270" y="150" as="sourcePoint" />
            <mxPoint x="330" y="150" as="targetPoint" />
          </mxGeometry>
        </mxCell>
        <mxCell id="oN4qOOFTBp7DMDAxU70g-12" value="Students" style="rounded=0;whiteSpace=wrap;html=1;" vertex="1" parent="WIyWlLk6GJQsqaUBKTNV-1">
          <mxGeometry x="450" y="10" width="160" height="60" as="geometry" />
        </mxCell>
        <mxCell id="oN4qOOFTBp7DMDAxU70g-27" value="Computer and applied studies" style="rhombus;whiteSpace=wrap;html=1;" vertex="1" parent="WIyWlLk6GJQsqaUBKTNV-1">
          <mxGeometry x="155" y="100" width="120" height="100" as="geometry" />
        </mxCell>
        <mxCell id="oN4qOOFTBp7DMDAxU70g-28" value="programming, &amp;nbsp;software testing,&lt;br&gt;security and administration" style="rounded=1;whiteSpace=wrap;html=1;" vertex="1" parent="WIyWlLk6GJQsqaUBKTNV-1">
          <mxGeometry x="330" y="120" width="120" height="60" as="geometry" />
        </mxCell>
        <mxCell id="oN4qOOFTBp7DMDAxU70g-29" value="" style="rounded=0;html=1;jettySize=auto;orthogonalLoop=1;fontSize=11;endArrow=block;endFill=0;endSize=8;strokeWidth=1;shadow=0;labelBackgroundColor=none;edgeStyle=orthogonalEdgeStyle;entryX=0.108;entryY=0.6;entryDx=0;entryDy=0;entryPerimeter=0;" edge="1" parent="WIyWlLk6GJQsqaUBKTNV-1" source="oN4qOOFTBp7DMDAxU70g-1" target="oN4qOOFTBp7DMDAxU70g-27">
          <mxGeometry relative="1" as="geometry">
            <mxPoint x="100" y="70" as="sourcePoint" />
            <mxPoint x="160" y="280" as="targetPoint" />
            <Array as="points">
              <mxPoint x="125" y="160" />
            </Array>
          </mxGeometry>
        </mxCell>
        <mxCell id="oN4qOOFTBp7DMDAxU70g-30" value="unique &amp;nbsp;ID number" style="shape=hexagon;perimeter=hexagonPerimeter2;whiteSpace=wrap;html=1;fixedSize=1;" vertex="1" parent="WIyWlLk6GJQsqaUBKTNV-1">
          <mxGeometry x="495" y="130" width="120" height="80" as="geometry" />
        </mxCell>
        <mxCell id="oN4qOOFTBp7DMDAxU70g-31" value="" style="endArrow=none;html=1;entryX=0.606;entryY=1.033;entryDx=0;entryDy=0;entryPerimeter=0;" edge="1" parent="WIyWlLk6GJQsqaUBKTNV-1" target="oN4qOOFTBp7DMDAxU70g-12">
          <mxGeometry width="50" height="50" relative="1" as="geometry">
            <mxPoint x="547" y="130" as="sourcePoint" />
            <mxPoint x="580" y="70" as="targetPoint" />
          </mxGeometry>
        </mxCell>
        <mxCell id="oN4qOOFTBp7DMDAxU70g-33" value="" style="endArrow=none;html=1;entryX=0.5;entryY=1;entryDx=0;entryDy=0;exitX=0.5;exitY=0;exitDx=0;exitDy=0;" edge="1" parent="WIyWlLk6GJQsqaUBKTNV-1" source="WIyWlLk6GJQsqaUBKTNV-12" target="oN4qOOFTBp7DMDAxU70g-28">
          <mxGeometry width="50" height="50" relative="1" as="geometry">
            <mxPoint x="360" y="240" as="sourcePoint" />
            <mxPoint x="410" y="190" as="targetPoint" />
          </mxGeometry>
        </mxCell>
        <mxCell id="oN4qOOFTBp7DMDAxU70g-35" value="" style="endArrow=none;html=1;entryX=0.5;entryY=1;entryDx=0;entryDy=0;" edge="1" parent="WIyWlLk6GJQsqaUBKTNV-1" source="oN4qOOFTBp7DMDAxU70g-36" target="oN4qOOFTBp7DMDAxU70g-30">
          <mxGeometry width="50" height="50" relative="1" as="geometry">
            <mxPoint x="555" y="270" as="sourcePoint" />
            <mxPoint x="650" y="260" as="targetPoint" />
          </mxGeometry>
        </mxCell>
        <mxCell id="oN4qOOFTBp7DMDAxU70g-36" value="Add new students to the database" style="rounded=0;whiteSpace=wrap;html=1;" vertex="1" parent="WIyWlLk6GJQsqaUBKTNV-1">
          <mxGeometry x="495" y="280" width="120" height="60" as="geometry" />
        </mxCell>
        <mxCell id="oN4qOOFTBp7DMDAxU70g-40" value="New student name&amp;nbsp;&lt;br&gt;and adress,&lt;br&gt;autogenerate new ID number" style="rounded=1;whiteSpace=wrap;html=1;" vertex="1" parent="WIyWlLk6GJQsqaUBKTNV-1">
          <mxGeometry x="500" y="385" width="120" height="60" as="geometry" />
        </mxCell>
        <mxCell id="oN4qOOFTBp7DMDAxU70g-41" value="" style="endArrow=none;html=1;entryX=0.5;entryY=1;entryDx=0;entryDy=0;" edge="1" parent="WIyWlLk6GJQsqaUBKTNV-1" target="oN4qOOFTBp7DMDAxU70g-36">
          <mxGeometry width="50" height="50" relative="1" as="geometry">
            <mxPoint x="555" y="380" as="sourcePoint" />
            <mxPoint x="580" y="340" as="targetPoint" />
          </mxGeometry>
        </mxCell>
        <mxCell id="oN4qOOFTBp7DMDAxU70g-42" value="In state students&lt;br&gt;should be added&amp;nbsp;" style="shape=hexagon;perimeter=hexagonPerimeter2;whiteSpace=wrap;html=1;fixedSize=1;" vertex="1" parent="WIyWlLk6GJQsqaUBKTNV-1">
          <mxGeometry x="430" y="505" width="120" height="80" as="geometry" />
        </mxCell>
        <mxCell id="oN4qOOFTBp7DMDAxU70g-44" value="" style="endArrow=none;html=1;entryX=0.5;entryY=1;entryDx=0;entryDy=0;" edge="1" parent="WIyWlLk6GJQsqaUBKTNV-1" target="oN4qOOFTBp7DMDAxU70g-40">
          <mxGeometry width="50" height="50" relative="1" as="geometry">
            <mxPoint x="500" y="510" as="sourcePoint" />
            <mxPoint x="550" y="460" as="targetPoint" />
          </mxGeometry>
        </mxCell>
        <mxCell id="oN4qOOFTBp7DMDAxU70g-45" value="Students can enroll&amp;nbsp;&lt;br&gt;up to 21credit of courses" style="rounded=1;whiteSpace=wrap;html=1;" vertex="1" parent="WIyWlLk6GJQsqaUBKTNV-1">
          <mxGeometry x="310" y="640" width="120" height="60" as="geometry" />
        </mxCell>
        <mxCell id="oN4qOOFTBp7DMDAxU70g-46" value="in state students pay&amp;nbsp;&lt;br&gt;100% course fee" style="rounded=1;whiteSpace=wrap;html=1;" vertex="1" parent="WIyWlLk6GJQsqaUBKTNV-1">
          <mxGeometry x="580" y="640" width="120" height="60" as="geometry" />
        </mxCell>
        <mxCell id="oN4qOOFTBp7DMDAxU70g-49" value="" style="endArrow=none;html=1;" edge="1" parent="WIyWlLk6GJQsqaUBKTNV-1" target="oN4qOOFTBp7DMDAxU70g-42">
          <mxGeometry width="50" height="50" relative="1" as="geometry">
            <mxPoint x="370" y="640" as="sourcePoint" />
            <mxPoint x="420" y="590" as="targetPoint" />
          </mxGeometry>
        </mxCell>
        <mxCell id="oN4qOOFTBp7DMDAxU70g-50" value="" style="endArrow=none;html=1;entryX=0.85;entryY=0.988;entryDx=0;entryDy=0;entryPerimeter=0;exitX=0.1;exitY=-0.05;exitDx=0;exitDy=0;exitPerimeter=0;" edge="1" parent="WIyWlLk6GJQsqaUBKTNV-1" source="oN4qOOFTBp7DMDAxU70g-46" target="oN4qOOFTBp7DMDAxU70g-42">
          <mxGeometry width="50" height="50" relative="1" as="geometry">
            <mxPoint x="560" y="630" as="sourcePoint" />
            <mxPoint x="610" y="580" as="targetPoint" />
          </mxGeometry>
        </mxCell>
        <mxCell id="oN4qOOFTBp7DMDAxU70g-51" value="If more than 21 credit show error &amp;nbsp;" style="rounded=0;whiteSpace=wrap;html=1;" vertex="1" parent="WIyWlLk6GJQsqaUBKTNV-1">
          <mxGeometry x="220" y="730" width="80" height="60" as="geometry" />
        </mxCell>
        <mxCell id="oN4qOOFTBp7DMDAxU70g-52" value="Remore a course" style="rounded=0;whiteSpace=wrap;html=1;" vertex="1" parent="WIyWlLk6GJQsqaUBKTNV-1">
          <mxGeometry x="450" y="730" width="80" height="60" as="geometry" />
        </mxCell>
        <mxCell id="oN4qOOFTBp7DMDAxU70g-54" value="" style="endArrow=none;html=1;entryX=0;entryY=0.867;entryDx=0;entryDy=0;entryPerimeter=0;" edge="1" parent="WIyWlLk6GJQsqaUBKTNV-1" target="oN4qOOFTBp7DMDAxU70g-45">
          <mxGeometry width="50" height="50" relative="1" as="geometry">
            <mxPoint x="240" y="730" as="sourcePoint" />
            <mxPoint x="300" y="690" as="targetPoint" />
          </mxGeometry>
        </mxCell>
        <mxCell id="oN4qOOFTBp7DMDAxU70g-56" value="view balance,&lt;br&gt;of all courses and costs, administration fee, final amount reflects &amp;nbsp;" style="shape=hexagon;perimeter=hexagonPerimeter2;whiteSpace=wrap;html=1;fixedSize=1;" vertex="1" parent="WIyWlLk6GJQsqaUBKTNV-1">
          <mxGeometry x="35" y="520" width="120" height="80" as="geometry" />
        </mxCell>
        <mxCell id="oN4qOOFTBp7DMDAxU70g-57" value="" style="endArrow=none;html=1;exitX=1;exitY=0.25;exitDx=0;exitDy=0;entryX=0;entryY=0.5;entryDx=0;entryDy=0;" edge="1" parent="WIyWlLk6GJQsqaUBKTNV-1" source="oN4qOOFTBp7DMDAxU70g-56" target="oN4qOOFTBp7DMDAxU70g-42">
          <mxGeometry width="50" height="50" relative="1" as="geometry">
            <mxPoint x="230" y="590" as="sourcePoint" />
            <mxPoint x="280" y="540" as="targetPoint" />
          </mxGeometry>
        </mxCell>
        <mxCell id="oN4qOOFTBp7DMDAxU70g-58" value="Pay tuition in one payment, 5% discount applied &amp;nbsp;" style="rounded=1;whiteSpace=wrap;html=1;" vertex="1" parent="WIyWlLk6GJQsqaUBKTNV-1">
          <mxGeometry x="30" y="650" width="120" height="60" as="geometry" />
        </mxCell>
        <mxCell id="oN4qOOFTBp7DMDAxU70g-60" value="" style="endArrow=none;html=1;entryX=0.5;entryY=1;entryDx=0;entryDy=0;" edge="1" parent="WIyWlLk6GJQsqaUBKTNV-1" target="oN4qOOFTBp7DMDAxU70g-56">
          <mxGeometry width="50" height="50" relative="1" as="geometry">
            <mxPoint x="95" y="646" as="sourcePoint" />
            <mxPoint x="120" y="600" as="targetPoint" />
          </mxGeometry>
        </mxCell>
        <mxCell id="oN4qOOFTBp7DMDAxU70g-61" value="Students can pay in installments (no discount),&lt;br&gt;1installment : show balance, installments left" style="rounded=1;whiteSpace=wrap;html=1;" vertex="1" parent="WIyWlLk6GJQsqaUBKTNV-1">
          <mxGeometry x="30" y="760" width="120" height="90" as="geometry" />
        </mxCell>
        <mxCell id="oN4qOOFTBp7DMDAxU70g-62" value="" style="endArrow=none;html=1;entryX=0.5;entryY=1;entryDx=0;entryDy=0;exitX=0.5;exitY=0;exitDx=0;exitDy=0;" edge="1" parent="WIyWlLk6GJQsqaUBKTNV-1" source="oN4qOOFTBp7DMDAxU70g-61" target="oN4qOOFTBp7DMDAxU70g-58">
          <mxGeometry width="50" height="50" relative="1" as="geometry">
            <mxPoint x="60" y="760" as="sourcePoint" />
            <mxPoint x="110" y="710" as="targetPoint" />
          </mxGeometry>
        </mxCell>
        <mxCell id="oN4qOOFTBp7DMDAxU70g-63" value="Receipt of payments&amp;nbsp;" style="shape=hexagon;perimeter=hexagonPerimeter2;whiteSpace=wrap;html=1;fixedSize=1;" vertex="1" parent="WIyWlLk6GJQsqaUBKTNV-1">
          <mxGeometry x="220" y="830" width="120" height="80" as="geometry" />
        </mxCell>
        <mxCell id="oN4qOOFTBp7DMDAxU70g-65" value="" style="endArrow=none;html=1;exitX=1;exitY=1;exitDx=0;exitDy=0;entryX=0;entryY=0.5;entryDx=0;entryDy=0;" edge="1" parent="WIyWlLk6GJQsqaUBKTNV-1" source="oN4qOOFTBp7DMDAxU70g-61" target="oN4qOOFTBp7DMDAxU70g-63">
          <mxGeometry width="50" height="50" relative="1" as="geometry">
            <mxPoint x="160" y="880" as="sourcePoint" />
            <mxPoint x="210" y="830" as="targetPoint" />
          </mxGeometry>
        </mxCell>
        <mxCell id="oN4qOOFTBp7DMDAxU70g-66" value="" style="endArrow=none;html=1;exitX=1;exitY=0;exitDx=0;exitDy=0;entryX=0.25;entryY=1;entryDx=0;entryDy=0;" edge="1" parent="WIyWlLk6GJQsqaUBKTNV-1" source="oN4qOOFTBp7DMDAxU70g-1" target="oN4qOOFTBp7DMDAxU70g-0">
          <mxGeometry width="50" height="50" relative="1" as="geometry">
            <mxPoint x="230" y="10" as="sourcePoint" />
            <mxPoint x="280" y="-40" as="targetPoint" />
          </mxGeometry>
        </mxCell>
        <mxCell id="oN4qOOFTBp7DMDAxU70g-67" value="" style="endArrow=none;html=1;entryX=0.75;entryY=1;entryDx=0;entryDy=0;exitX=0.5;exitY=0;exitDx=0;exitDy=0;" edge="1" parent="WIyWlLk6GJQsqaUBKTNV-1" source="oN4qOOFTBp7DMDAxU70g-12" target="oN4qOOFTBp7DMDAxU70g-0">
          <mxGeometry width="50" height="50" relative="1" as="geometry">
            <mxPoint x="450" y="10" as="sourcePoint" />
            <mxPoint x="420" y="-40" as="targetPoint" />
          </mxGeometry>
        </mxCell>
        <mxCell id="oN4qOOFTBp7DMDAxU70g-68" value="" style="endArrow=none;html=1;exitX=0.933;exitY=1;exitDx=0;exitDy=0;entryX=0.5;entryY=0;entryDx=0;entryDy=0;exitPerimeter=0;" edge="1" parent="WIyWlLk6GJQsqaUBKTNV-1" source="oN4qOOFTBp7DMDAxU70g-45" target="oN4qOOFTBp7DMDAxU70g-52">
          <mxGeometry width="50" height="50" relative="1" as="geometry">
            <mxPoint x="450" y="730" as="sourcePoint" />
            <mxPoint x="500" y="680" as="targetPoint" />
          </mxGeometry>
        </mxCell>
      </root>
    </mxGraphModel>
  </diagram>
</mxfile>
